<svg width="42" height="30" viewBox="0 0 42 30" fill="none" xmlns="http://www.w3.org/2000/svg">
<path d="M41.865 10.1505C41.865 10.1505 37.931 4.89523 37.9286 4.89224C37.9276 4.89084 37.8418 4.73852 37.5775 4.65443L21.1841 0.0254799C21.0636 -0.00849331 20.9363 -0.00849331 20.8158 0.0254799L4.42241 4.65443C4.42241 4.65443 4.1986 4.71902 4.0641 4.90055C4.01025 4.97325 0.13506 10.1505 0.13506 10.1505C0.00513989 10.3243 -0.0338734 10.5498 0.0303398 10.7571C0.0946464 10.9644 0.254339 11.1284 0.459766 11.1981L3.92905 12.3755V21.7904C3.92905 22.0646 4.09434 22.3117 4.34784 22.4164L20.7413 29.1906C20.7901 29.2107 20.8518 29.242 21 29.242C21.1481 29.242 21.2586 29.1906 21.2586 29.1906L37.6522 22.4164C37.9057 22.3117 38.0709 22.0645 38.0709 21.7904V12.3753L41.5402 11.1979C41.7456 11.1282 41.9053 10.9641 41.9696 10.7569C42.0338 10.5498 41.9948 10.3243 41.865 10.1505ZM1.77912 10.215L4.872 6.08224L6.12294 6.42682L13.1632 8.3661L19.8211 10.2003L15.9163 15.013L1.77912 10.215ZM20.3226 27.5515L5.28387 21.3373V12.8352L15.9276 16.4479C15.9989 16.4723 16.0723 16.4837 16.1452 16.4837C16.3454 16.4837 16.5401 16.3948 16.6712 16.2331L20.3227 11.7326L20.3226 27.5515ZM21 9.12005L7.12786 5.29843L21 1.38124L34.8721 5.29843L21 9.12005ZM36.7161 21.3373L21.6773 27.5515V11.7328L25.3288 16.2332C25.4599 16.3948 25.6546 16.4839 25.8548 16.4839C25.9277 16.4839 26.0011 16.4725 26.0725 16.4481L36.7161 12.8354V21.3373ZM26.0837 15.0132L22.1789 10.2005L37.128 6.08224L40.221 10.215L26.0837 15.0132Z" fill="white"/>
</svg>
