<svg width="40" height="40" viewBox="0 0 40 40" fill="none" xmlns="http://www.w3.org/2000/svg">
<path d="M36 0H4C1.79086 0 0 1.79086 0 4V36C0 38.2091 1.79086 40 4 40H36C38.2091 40 40 38.2091 40 36V4C40 1.79086 38.2091 0 36 0Z" fill="#EC3737"/>
<path d="M23.2727 12.9829L25.0169 14.7264M24.3944 11.447L19.678 16.1634C19.4343 16.4068 19.2681 16.7168 19.2003 17.0545L18.7646 19.2352L20.9454 18.7988C21.283 18.7312 21.5927 18.5657 21.8364 18.3219L26.5528 13.6055C26.6946 13.4638 26.807 13.2955 26.8837 13.1104C26.9604 12.9252 26.9999 12.7267 26.9999 12.5263C26.9999 12.3259 26.9604 12.1274 26.8837 11.9422C26.807 11.757 26.6946 11.5888 26.5528 11.447C26.4111 11.3053 26.2429 11.1929 26.0577 11.1162C25.8725 11.0395 25.674 11 25.4736 11C25.2732 11 25.0747 11.0395 24.8895 11.1162C24.7043 11.1929 24.5361 11.3053 24.3944 11.447V11.447Z" stroke="white" stroke-linecap="round" stroke-linejoin="round"/>
<path d="M25.3531 20.8823V23.3529C25.3531 23.7897 25.1795 24.2087 24.8706 24.5176C24.5618 24.8264 24.1428 25 23.706 25H14.6471C14.2102 25 13.7913 24.8264 13.4824 24.5176C13.1735 24.2087 13 23.7897 13 23.3529V14.294C13 13.8572 13.1735 13.4382 13.4824 13.1293C13.7913 12.8204 14.2102 12.6469 14.6471 12.6469H17.1177" stroke="white" stroke-linecap="round" stroke-linejoin="round"/>
</svg>
