<svg width="22" height="18" viewBox="0 0 22 18" fill="none" xmlns="http://www.w3.org/2000/svg">
<path d="M21.7383 5.47427C21.6758 5.68984 21.6305 5.91108 21.551 6.12098C21.3468 6.67691 20.9894 7.13074 20.5129 7.48812C20.4448 7.53918 20.3824 7.64129 20.3824 7.72071C20.3768 10.7784 20.3768 13.836 20.3768 16.8937C20.3768 16.9277 20.3824 16.9617 20.3881 17.0298C20.5016 17.0298 20.6094 17.0241 20.7228 17.0298C20.927 17.0355 21.0518 17.1546 21.0575 17.3361C21.0632 17.5233 20.927 17.6538 20.7228 17.6652C20.6718 17.6652 20.6264 17.6652 20.5753 17.6652C14.1083 17.6652 7.64129 17.6652 1.1686 17.6652C0.822559 17.6652 0.675066 17.5687 0.680739 17.3361C0.686411 17.1149 0.82256 17.0298 1.15726 17.0241C1.21398 17.0241 1.27071 17.0241 1.3558 17.0241C1.3558 16.939 1.3558 16.8653 1.3558 16.7916C1.3558 13.7906 1.3558 10.7897 1.36148 7.78878C1.36148 7.64129 1.31609 7.55053 1.19697 7.45976C0.436808 6.88113 0.0283641 6.1153 0 5.1566C0 5.05449 0.0283646 4.9467 0.07942 4.85594C0.896306 3.42071 1.71886 1.98549 2.53575 0.550264C2.74565 0.181531 3.06332 0 3.49446 0C8.40712 0 13.3141 0 18.2268 0C18.6749 0 18.9926 0.192877 19.2138 0.578628C20.0194 1.99683 20.8306 3.41504 21.6418 4.82757C21.6702 4.87295 21.7042 4.91834 21.7326 4.96372C21.7382 5.1339 21.7383 5.30409 21.7383 5.47427ZM5.20765 5.4062C4.53826 5.4062 3.88021 5.4062 3.22216 5.4062C3.13707 5.4062 3.03496 5.42889 2.97256 5.38351C2.87045 5.31543 2.73997 5.20765 2.7343 5.11121C2.72295 5.0091 2.83074 4.87295 2.9215 4.79921C2.9839 4.74815 3.10871 4.7595 3.20514 4.7595C8.31636 4.7595 13.4219 4.7595 18.5331 4.7595C18.6295 4.7595 18.7543 4.74815 18.8167 4.79921C18.9075 4.87863 19.0096 5.01477 18.9983 5.11121C18.9869 5.21332 18.8565 5.31543 18.76 5.38351C18.709 5.42322 18.6069 5.40053 18.5331 5.40053C17.9375 5.40053 17.3418 5.40053 16.7518 5.40053C16.6781 5.40053 16.6043 5.40053 16.5249 5.40053C16.5249 6.16068 17.3532 7.38034 18.7657 7.39169C20.1612 7.40303 21.0235 6.22309 21.0462 5.40053C20.7455 5.40053 20.4392 5.4062 20.1385 5.40053C19.8776 5.39485 19.7471 5.28707 19.7414 5.08852C19.7357 4.87863 19.8776 4.7595 20.1385 4.75383C20.3654 4.75383 20.598 4.75383 20.8476 4.75383C20.8136 4.69142 20.8022 4.65739 20.7852 4.62902C20.0704 3.37533 19.3557 2.12731 18.6409 0.873616C18.5388 0.692086 18.3856 0.629683 18.1871 0.629683C13.3028 0.629683 8.42414 0.629683 3.53984 0.629683C3.3186 0.629683 3.17111 0.714776 3.06332 0.907651C2.37691 2.12731 1.67916 3.34129 0.981398 4.55528C0.947361 4.612 0.918997 4.67441 0.879287 4.75383C1.16293 4.75383 1.41821 4.74248 1.67348 4.7595C1.85501 4.77084 1.97414 4.87295 1.98549 5.06583C1.99683 5.24736 1.88338 5.36649 1.69617 5.39485C1.61108 5.4062 1.52599 5.40053 1.4409 5.40053C1.18562 5.40053 0.936015 5.40053 0.680739 5.40053C0.709103 6.24578 1.59406 7.40871 2.96121 7.38601C4.11279 7.37467 5.24736 6.39327 5.20765 5.4062ZM2.00251 17.0071C5.98483 17.0071 9.9558 17.0071 13.9495 17.0071C13.9495 16.8993 13.9495 16.8086 13.9495 16.7178C13.9495 14.2558 13.9495 11.7938 13.9495 9.33179C13.9495 8.92902 14.0402 8.84393 14.4317 8.84393C15.6854 8.84393 16.939 8.84393 18.1871 8.84393C18.5842 8.84393 18.6749 8.93469 18.6749 9.33179C18.6749 11.8108 18.6749 14.2842 18.6749 16.7632C18.6749 16.8483 18.6749 16.9277 18.6749 17.0128C19.0437 17.0128 19.384 17.0128 19.7301 17.0128C19.7301 13.9722 19.7301 10.9429 19.7301 7.89657C19.0266 8.11213 18.3402 8.10646 17.6708 7.82849C17.0014 7.5562 16.5079 7.08535 16.1448 6.44433C15.5435 7.47678 14.6699 8.04406 13.5013 8.03839C12.3327 8.03839 11.4648 7.46543 10.8691 6.45C10.2621 7.47678 9.39419 8.04406 8.21992 8.03839C7.05132 8.03272 6.18337 7.45976 5.5934 6.45567C4.74248 7.81148 3.55119 8.29367 2.00251 7.90791C2.00251 10.9315 2.00251 13.9551 2.00251 17.0071ZM18.0226 15.3053C18.0226 13.3595 18.0226 11.4364 18.0226 9.51332C16.8766 9.51332 15.7421 9.51332 14.6075 9.51332C14.6075 11.4534 14.6075 13.3708 14.6075 15.3053C15.7534 15.3053 16.8823 15.3053 18.0226 15.3053ZM5.95079 5.41754C6.06992 6.54076 7.10237 7.40871 8.28799 7.38601C9.40554 7.36332 10.421 6.46702 10.4947 5.41754C8.98575 5.41754 7.47678 5.41754 5.95079 5.41754ZM11.2379 5.41754C11.2719 6.47269 12.3667 7.40303 13.541 7.39169C14.9138 7.38034 15.7478 6.20039 15.7704 5.41754C14.2615 5.41754 12.7468 5.41754 11.2379 5.41754ZM18.0282 15.969C16.8766 15.969 15.7421 15.969 14.6075 15.969C14.6075 16.3207 14.6075 16.6667 14.6075 17.0014C15.7534 17.0014 16.888 17.0014 18.0282 17.0014C18.0282 16.6554 18.0282 16.3264 18.0282 15.969Z" fill="#FF0000"/>
<path d="M7.96442 15.9576C6.47814 15.9576 4.99186 15.9576 3.50558 15.9576C3.1482 15.9576 3.05176 15.8612 3.05176 15.5038C3.05176 13.4332 3.05176 11.357 3.05176 9.28641C3.05176 8.94604 3.15387 8.84393 3.49424 8.84393C6.47247 8.84393 9.4507 8.84393 12.4289 8.84393C12.7806 8.84393 12.8884 8.95172 12.8884 9.29776C12.8884 11.3627 12.8884 13.4276 12.8884 15.4982C12.8884 15.8612 12.7863 15.9576 12.4176 15.9576C10.937 15.9576 9.4507 15.9576 7.96442 15.9576ZM12.2304 9.50765C9.3883 9.50765 6.55189 9.50765 3.70981 9.50765C3.70981 11.4421 3.70981 13.3708 3.70981 15.2996C6.55756 15.2996 9.3883 15.2996 12.2304 15.2996C12.2304 13.3652 12.2304 11.4421 12.2304 9.50765Z" fill="#FF0000"/>
</svg>
