<svg width="40" height="40" viewBox="0 0 40 40" fill="none" xmlns="http://www.w3.org/2000/svg">
<path d="M36 0H4C1.79086 0 0 1.79086 0 4V36C0 38.2091 1.79086 40 4 40H36C38.2091 40 40 38.2091 40 36V4C40 1.79086 38.2091 0 36 0Z" fill="#EC3737"/>
<path d="M27.0001 18.2373C27.0012 17.6981 26.8673 17.1672 26.6107 16.693C26.354 16.2188 25.9828 15.8164 25.5308 15.5224C25.0788 15.2285 24.5604 15.0523 24.0229 15.01C23.4854 14.9676 22.9458 15.0605 22.4534 15.2802C21.9609 15.4998 21.5313 15.8392 21.2036 16.2674C20.876 16.6956 20.6607 17.199 20.5774 17.7317C20.4941 18.2644 20.5454 18.8095 20.7267 19.3173C20.9081 19.825 21.2136 20.2794 21.6155 20.6388V25.7758L23.7693 24.7613L25.9232 25.7758V20.6388C26.2617 20.337 26.5326 19.967 26.7182 19.5531C26.9038 19.1393 26.9999 18.6909 27.0001 18.2373ZM24.8463 24.0785L23.7693 23.5713L22.6924 24.0785V21.2796C23.3884 21.5309 24.1503 21.5309 24.8463 21.2796V24.0785ZM23.7693 20.3911C23.3433 20.3911 22.9269 20.2648 22.5727 20.0282C22.2185 19.7915 21.9425 19.4551 21.7794 19.0615C21.6164 18.668 21.5738 18.2349 21.6569 17.8171C21.74 17.3993 21.9451 17.0155 22.2463 16.7143C22.5476 16.4131 22.9313 16.2079 23.3491 16.1248C23.7669 16.0417 24.2 16.0844 24.5936 16.2474C24.9871 16.4104 25.3235 16.6865 25.5602 17.0407C25.7969 17.3949 25.9232 17.8113 25.9232 18.2373C25.9225 18.8083 25.6953 19.3557 25.2915 19.7595C24.8878 20.1633 24.3404 20.3904 23.7693 20.3911Z" fill="white"/>
<path d="M18.3846 12C17.5281 12.001 16.7069 12.3417 16.1012 12.9474C15.4955 13.553 15.1548 14.3742 15.1538 15.2308V18.4615H14.0769C13.7914 18.4618 13.5176 18.5754 13.3157 18.7773C13.1138 18.9792 13.0003 19.2529 13 19.5385V26C13.0003 26.2855 13.1138 26.5593 13.3157 26.7612C13.5176 26.9631 13.7914 27.0766 14.0769 27.0769H20V26H14.0769V19.5385H18.9231V18.4615H16.2308V15.2308C16.2302 14.6966 16.4282 14.1814 16.7862 13.785C17.1442 13.3886 17.6367 13.1393 18.1682 13.0857C18.6996 13.032 19.232 13.1777 19.662 13.4945C20.0921 13.8113 20.3891 14.2765 20.4954 14.8L21.5508 14.5846C21.4002 13.8557 21.0033 13.2008 20.4267 12.7301C19.85 12.2594 19.129 12.0016 18.3846 12Z" fill="white"/>
</svg>
