<svg width="40" height="40" viewBox="0 0 40 40" fill="none" xmlns="http://www.w3.org/2000/svg">
<path d="M36 0H4C1.79086 0 0 1.79086 0 4V36C0 38.2091 1.79086 40 4 40H36C38.2091 40 40 38.2091 40 36V4C40 1.79086 38.2091 0 36 0Z" fill="#EC3737"/>
<path fill-rule="evenodd" clip-rule="evenodd" d="M13 14.5552C13 13.6998 13.6998 13 14.5552 13H20.7761V14.5552H14.5552V25.4417H20.7761V26.9969H14.5552C13.6998 26.9969 13 26.297 13 25.4417V14.5552ZM24.0233 19.2208L22.0513 17.2488L23.1509 16.1493L27 19.9984L23.1509 23.8476L22.0513 22.7481L24.0233 20.7761H18.902V19.2208H24.0233Z" fill="white"/>
</svg>
