<svg width="40" height="40" viewBox="0 0 40 40" fill="none" xmlns="http://www.w3.org/2000/svg">
<path d="M36 0H4C1.79086 0 0 1.79086 0 4V36C0 38.2091 1.79086 40 4 40H36C38.2091 40 40 38.2091 40 36V4C40 1.79086 38.2091 0 36 0Z" fill="#EC3737"/>
<path d="M13.5109 27.2388C13.3372 27.1845 13.1527 27.1465 12.9845 27.0706C12.3333 26.7721 11.9751 26.2837 11.9751 25.551C11.9751 21.5514 11.9751 17.5572 11.9751 13.5576C11.9751 12.5591 12.7511 11.7667 13.7551 11.7505C14.2815 11.7396 14.8079 11.7505 15.3669 11.7505C15.3669 11.5497 15.3669 11.3543 15.3669 11.1589C15.3669 10.8333 15.4809 10.7031 15.8119 10.6977C16.1809 10.6868 16.5554 10.6922 16.9244 10.6922C17.0167 10.6922 17.0655 10.6759 17.1089 10.5837C17.4725 9.80764 18.0912 9.41148 18.9432 9.42234C19.7952 9.42776 20.441 9.78051 20.7992 10.5837C20.8209 10.6325 20.9077 10.6868 20.962 10.6868C21.3093 10.6977 21.6567 10.6922 22.004 10.6922C22.1017 10.6922 22.2048 10.6977 22.297 10.7248C22.4978 10.7791 22.5738 10.8876 22.5792 11.0884C22.5847 11.3 22.5792 11.5171 22.5792 11.7505C22.7854 11.7505 22.9754 11.745 23.1653 11.7505C23.5995 11.7559 24.0391 11.7342 24.4678 11.7885C25.3144 11.8916 25.971 12.6568 25.971 13.5088C25.9765 17.5464 25.9765 21.584 25.971 25.6216C25.971 26.4031 25.3849 27.0489 24.5709 27.2062C24.5275 27.2171 24.4841 27.2279 24.4406 27.2442C20.7992 27.2388 17.1523 27.2388 13.5109 27.2388ZM15.3669 12.6188C15.3235 12.6079 15.3126 12.5971 15.3018 12.5971C14.8242 12.5971 14.3521 12.5916 13.8745 12.5916C13.2016 12.5916 12.8163 12.9769 12.8163 13.6499C12.8163 17.5898 12.8163 21.5297 12.8163 25.4696C12.8163 25.5185 12.8163 25.5619 12.8163 25.6107C12.8217 25.8658 12.9357 26.0666 13.1473 26.2077C13.3535 26.3488 13.5815 26.3922 13.8257 26.3922C17.2555 26.3922 20.6852 26.3922 24.1096 26.3922C24.2073 26.3922 24.305 26.3868 24.4027 26.3705C24.8639 26.2945 25.1244 25.9852 25.1244 25.5185C25.1244 21.5514 25.1244 17.5844 25.1244 13.6119C25.1244 13.0095 24.7337 12.6079 24.1259 12.5971C23.7731 12.5916 23.4204 12.5971 23.0622 12.5971C22.9048 12.5971 22.7529 12.5971 22.6064 12.5971C22.5901 12.6242 22.5792 12.6351 22.5792 12.6459C22.5738 12.9335 22.5738 13.2266 22.5738 13.5142C22.5738 13.9104 22.411 14.0786 22.0203 14.0786C19.9797 14.0786 17.9338 14.0786 15.8933 14.0786C15.5134 14.0786 15.356 13.9158 15.356 13.5359C15.3669 13.232 15.3669 12.9281 15.3669 12.6188ZM21.7272 11.5388C21.3636 11.5388 21.0163 11.5388 20.669 11.5388C20.3108 11.5388 20.186 11.4411 20.0883 11.0992C19.9309 10.5403 19.4208 10.1712 18.8672 10.2147C18.3625 10.2526 17.9447 10.6163 17.7927 11.1427C17.7113 11.4303 17.5648 11.5442 17.2663 11.5442C17.1578 11.5442 17.0438 11.5442 16.9353 11.5442C16.7019 11.5442 16.4631 11.5442 16.2352 11.5442C16.2352 12.1249 16.2352 12.6785 16.2352 13.232C18.0749 13.232 19.8983 13.232 21.7272 13.232C21.7272 12.6622 21.7272 12.1141 21.7272 11.5388Z" fill="white"/>
<path d="M20.989 16.4176C21.7813 16.4176 22.579 16.4176 23.3714 16.4176C23.6156 16.4176 23.7838 16.5316 23.8381 16.7269C23.9032 16.9603 23.7567 17.2099 23.5125 17.2533C23.4365 17.2642 23.3605 17.2696 23.29 17.2696C21.7596 17.2696 20.2292 17.2696 18.6988 17.2696C18.6337 17.2696 18.5686 17.2696 18.5089 17.2642C18.2809 17.2371 18.129 17.0634 18.1344 16.8409C18.1344 16.6184 18.2972 16.4447 18.5252 16.4285C18.6771 16.4176 18.8291 16.423 18.9756 16.423C19.6431 16.4176 20.316 16.4176 20.989 16.4176Z" fill="white"/>
<path d="M21.0053 23.2066C21.7759 23.2066 22.5465 23.2066 23.3171 23.2066C23.404 23.2066 23.4908 23.212 23.5722 23.2392C23.7513 23.2934 23.8598 23.4671 23.849 23.657C23.8381 23.847 23.7133 23.9989 23.5288 24.0423C23.4582 24.0586 23.3768 24.0641 23.3063 24.0641C21.765 24.0641 20.2238 24.0641 18.6826 24.0641C18.612 24.0641 18.5415 24.0641 18.4763 24.0478C18.2755 24.0098 18.1399 23.8524 18.1344 23.6462C18.129 23.44 18.2538 23.2772 18.4546 23.2283C18.5252 23.212 18.6012 23.212 18.6771 23.2066C19.4532 23.2066 20.2292 23.2066 21.0053 23.2066Z" fill="white"/>
<path d="M21.0002 19.8148C21.7925 19.8148 22.5902 19.8148 23.3826 19.8148C23.643 19.8148 23.8167 19.9451 23.8493 20.1621C23.8873 20.4118 23.7136 20.6343 23.4585 20.656C23.3663 20.6614 23.274 20.6614 23.1818 20.6614C21.6622 20.6614 20.1427 20.6614 18.6232 20.6614C18.3247 20.6614 18.1456 20.5095 18.1348 20.2598C18.1239 19.9993 18.2976 19.8202 18.5798 19.8202C19.1496 19.8148 19.714 19.8202 20.2838 19.8202C20.5226 19.8148 20.7614 19.8148 21.0002 19.8148Z" fill="white"/>
<path d="M15.405 20.1567C15.8283 19.7551 16.2461 19.3481 16.6749 18.9519C16.7508 18.8814 16.8485 18.8108 16.9516 18.7837C17.1361 18.7294 17.3261 18.8326 17.4183 19.0008C17.516 19.1744 17.4889 19.3481 17.3261 19.5055C16.8485 19.9613 16.371 20.4172 15.888 20.8731C15.812 20.9436 15.7414 21.0196 15.66 21.0847C15.4755 21.2367 15.2639 21.2312 15.0956 21.0684C14.7972 20.7754 14.5095 20.4769 14.2219 20.173C14.0483 19.9885 14.0591 19.7171 14.2219 19.5598C14.3901 19.3969 14.6398 19.4132 14.8297 19.5977C14.9274 19.69 15.0142 19.7931 15.1065 19.8854C15.2042 19.9722 15.2964 20.059 15.405 20.1567Z" fill="white"/>
<path d="M15.405 16.7649C15.8391 16.3524 16.2679 15.94 16.702 15.5276C16.8811 15.3593 17.0602 15.3268 17.2393 15.4299C17.4943 15.571 17.554 15.8857 17.3478 16.0865C16.7888 16.6292 16.2244 17.161 15.66 17.6875C15.4864 17.8503 15.2693 17.834 15.1011 17.6657C14.8134 17.3781 14.5312 17.0905 14.2491 16.7974C14.0591 16.5966 14.0591 16.3253 14.2328 16.1625C14.401 16.0051 14.6615 16.0268 14.8514 16.2168C15.0251 16.3904 15.1988 16.5749 15.3724 16.7486C15.3724 16.754 15.3778 16.754 15.405 16.7649Z" fill="white"/>
<path d="M15.4214 23.5376C15.8393 23.136 16.2788 22.7236 16.713 22.3057C16.9029 22.1266 17.1091 22.1103 17.2937 22.2514C17.5053 22.4142 17.5433 22.6856 17.3534 22.8701C16.7944 23.4128 16.23 23.9446 15.6656 24.471C15.4865 24.6393 15.264 24.623 15.0903 24.4439C14.8081 24.1617 14.5259 23.8741 14.2546 23.5865C14.0647 23.3857 14.0592 23.1197 14.2275 22.9461C14.3957 22.7833 14.6562 22.8104 14.8624 23.0058C15.0361 23.1903 15.2206 23.3531 15.4214 23.5376Z" fill="white"/>
</svg>
