<svg width="16" height="16" viewBox="0 0 16 16" fill="none" xmlns="http://www.w3.org/2000/svg">
<path d="M14.4307 4.12427L13.3778 5.17721L10.7455 2.54161L11.7984 1.48867C12.0129 1.27419 12.3866 1.27419 12.6011 1.48867L14.4307 3.32157C14.6517 3.54255 14.6517 3.90328 14.4307 4.12427ZM5.6335 12.9313L3.00115 10.2957L9.80626 3.48081L12.4386 6.1164L5.6335 12.9313ZM2.39344 11.5663L4.36282 13.539L1.61998 14.3124L2.39344 11.5663ZM15.3699 2.38237L13.5403 0.549477C13.1828 0.191998 11.8926 -0.483963 10.8624 0.549477L1.59073 9.82769C1.50949 9.90893 1.45099 10.0064 1.42174 10.1169L0.0243251 15.0924C-0.0406712 15.3231 0.0275749 15.5701 0.193315 15.7423C0.362305 15.9146 0.700286 15.9438 0.843278 15.9113L5.81549 14.5107C5.92598 14.4814 6.02348 14.4229 6.10472 14.3417L15.3699 5.06347C16.1076 4.32576 16.1076 3.12333 15.3699 2.38237Z" fill="#868889"/>
</svg>
