<svg width="24" height="24" viewBox="0 0 24 24" fill="none" xmlns="http://www.w3.org/2000/svg">
<path d="M4.67844 15.4047C6.96419 18.1371 9.71572 20.2884 12.8562 21.8106C14.0519 22.3772 15.651 23.0495 17.4325 23.1647C17.543 23.1695 17.6486 23.1743 17.759 23.1743C18.9547 23.1743 19.9151 22.7614 20.6979 21.9114C20.7027 21.9066 20.7123 21.897 20.7171 21.8874C20.9956 21.5513 21.3125 21.2488 21.6438 20.927C21.8695 20.7109 22.1 20.4852 22.3209 20.2547C23.3437 19.1887 23.3437 17.8345 22.3113 16.8021L19.4253 13.9161C18.9355 13.4071 18.3497 13.1382 17.735 13.1382C17.1204 13.1382 16.5297 13.4071 16.0255 13.9113L14.3064 15.6304C14.148 15.5392 13.9847 15.4576 13.831 15.3807C13.6389 15.2847 13.4613 15.1935 13.3028 15.0926C11.7374 14.0986 10.316 12.8021 8.95701 11.1358C8.27033 10.2666 7.80934 9.53673 7.4876 8.79242C7.93899 8.38425 8.36156 7.95688 8.76973 7.53911C8.91379 7.39024 9.06265 7.24138 9.21152 7.09252C9.73013 6.57391 10.0086 5.97366 10.0086 5.36381C10.0086 4.75396 9.73493 4.15371 9.21152 3.6351L7.78052 2.20411C7.61246 2.03604 7.45399 1.87277 7.29072 1.7047C6.97379 1.37817 6.64246 1.04203 6.31592 0.739505C5.82132 0.254505 5.24028 0 4.62562 0C4.01577 0 3.42993 0.254505 2.91612 0.744307L1.12018 2.54025C0.467108 3.19332 0.0973549 3.98564 0.0205233 4.90282C-0.0707144 6.05049 0.140573 7.2702 0.687999 8.7444C1.52835 11.0253 2.79607 13.143 4.67844 15.4047ZM1.19221 5.00366C1.24983 4.365 1.49473 3.83198 1.95572 3.37099L3.74206 1.58465C4.02057 1.31574 4.3279 1.17648 4.62562 1.17648C4.91854 1.17648 5.21627 1.31574 5.48998 1.59426C5.81171 1.89198 6.11424 2.20411 6.44077 2.53544C6.60404 2.70351 6.77211 2.87158 6.94018 3.04445L8.37117 4.47544C8.66889 4.77317 8.82256 5.07569 8.82256 5.37341C8.82256 5.67114 8.66889 5.97366 8.37117 6.27138C8.22231 6.42025 8.07345 6.57391 7.92458 6.72277C7.478 7.17416 7.06023 7.60153 6.59924 8.0097C6.58963 8.0193 6.58483 8.02411 6.57523 8.03371C6.17666 8.43227 6.23909 8.81163 6.33513 9.09975C6.33993 9.11415 6.34473 9.12376 6.34953 9.13817C6.71929 10.0265 7.2331 10.8717 8.03503 11.8801C9.47562 13.6568 10.993 15.035 12.6641 16.0962C12.8706 16.2307 13.0915 16.3363 13.298 16.442C13.4901 16.538 13.6678 16.6293 13.8262 16.7301C13.8454 16.7397 13.8598 16.7493 13.879 16.7589C14.0375 16.8405 14.1912 16.879 14.3448 16.879C14.729 16.879 14.9787 16.6341 15.0603 16.5524L16.8563 14.7565C17.1348 14.478 17.4373 14.3291 17.735 14.3291C18.1 14.3291 18.3977 14.5548 18.585 14.7565L21.4806 17.6473C22.0568 18.2235 22.052 18.8478 21.4662 19.4576C21.2645 19.6737 21.0532 19.8802 20.8275 20.0963C20.4914 20.4228 20.1408 20.759 19.8239 21.1383C19.2717 21.7338 18.6138 22.0123 17.7638 22.0123C17.6822 22.0123 17.5958 22.0075 17.5141 22.0027C15.9391 21.9018 14.4745 21.2872 13.3748 20.7638C10.388 19.3184 7.76612 17.2679 5.59082 14.6652C3.79968 12.5092 2.59439 10.5019 1.79726 8.35064C1.30265 7.0301 1.11538 5.96886 1.19221 5.00366Z" fill="#868889"/>
</svg>
