<svg width="22" height="20" viewBox="0 0 22 20" fill="none" xmlns="http://www.w3.org/2000/svg">
<path d="M3.48573 10.7259C3.48573 10.5615 3.48573 10.4381 3.48573 10.3148C3.48573 7.38007 3.48573 4.45352 3.48573 1.51876C3.48573 0.556947 4.02007 0.00616547 4.98188 0.00616547C8.936 -0.00205516 12.8983 -0.00205516 16.8525 0.00616547C17.8225 0.00616547 18.3568 0.565169 18.3568 1.54342C18.3568 4.91388 18.3568 8.29256 18.3568 11.663C18.3568 11.7863 18.3568 11.9096 18.3568 12.074C18.661 11.9836 18.9405 11.8932 19.22 11.811C20.2969 11.4739 21.3245 11.9261 21.6944 12.9126C22.0726 13.9155 21.6122 14.943 20.56 15.3952C18.3568 16.357 16.1619 17.3352 13.9424 18.2477C13.334 18.4944 12.6353 18.5601 11.9694 18.6505C10.3253 18.8807 8.68117 19.078 7.03704 19.3C6.2643 19.4068 5.52444 19.3411 4.81747 19.004C4.14338 18.6834 3.46107 18.3793 2.7952 18.0422C2.1211 17.697 1.43057 17.5079 0.666053 17.5408C0.23036 17.5572 -0.0327006 17.2448 0.0248438 16.8338C0.0577263 16.5543 0.287904 16.3323 0.583847 16.3159C1.38125 16.2748 2.15399 16.3652 2.88562 16.7187C3.58438 17.0557 4.30779 17.3517 4.9901 17.7134C5.67242 18.0751 6.37117 18.1409 7.12747 18.034C9.07576 17.7545 11.024 17.5079 12.9723 17.2366C13.145 17.2119 13.3094 17.1626 13.4738 17.0968C15.6687 16.1433 17.8636 15.1897 20.0585 14.2361C20.4778 14.0552 20.6586 13.7511 20.5682 13.4058C20.4613 13.003 20.075 12.8139 19.6064 12.9619C18.587 13.2825 17.5677 13.6277 16.5401 13.9401C15.4961 14.2607 14.4438 14.5731 13.3916 14.8526C13.0545 14.943 12.6846 14.9513 12.3229 14.9513C10.8432 14.9595 9.3717 14.9595 7.89198 14.9595C7.20145 14.9595 6.65889 14.5731 6.5027 13.9648C6.33829 13.3482 6.60135 12.7646 7.20145 12.4029C8.64006 11.5561 10.0787 10.7094 11.5173 9.8627C11.8625 9.65718 12.0187 9.36124 11.9612 8.96665C11.9119 8.62138 11.7064 8.39121 11.3693 8.28434C11.0816 8.19391 10.835 8.27612 10.5801 8.41587C9.1333 9.26259 7.67003 10.0929 6.2232 10.9396C4.94078 11.6959 3.55971 12.0658 2.06356 12.0494C1.61143 12.0412 1.15929 12.0494 0.707156 12.0494C0.263242 12.0412 -0.00803895 11.7945 0.000181678 11.4164C0.000181678 11.0465 0.263242 10.8163 0.698935 10.8081C1.37303 10.7916 2.05534 10.7916 2.72943 10.7752C2.99249 10.7998 3.22267 10.7587 3.48573 10.7259ZM14.7151 1.24748C14.6904 2.29972 14.3205 3.20399 13.5724 3.93563C12.8161 4.67548 11.9119 5.03719 10.8514 5.02075C9.98825 5.01253 9.22373 4.7248 8.55786 4.19046C7.63715 3.44239 7.17679 2.45591 7.13569 1.2557C6.44515 1.2557 5.77928 1.2557 5.12163 1.2557C4.71882 1.2557 4.71882 1.2557 4.71882 1.66673C4.71882 4.43708 4.71882 7.20744 4.71882 9.96957C4.71882 10.0764 4.72704 10.1833 4.73526 10.3395C5.01477 10.1997 5.24494 10.0847 5.47512 9.95312C6.99594 9.08174 8.50853 8.20213 10.0211 7.32252C10.5719 7.00192 11.1474 6.87861 11.7639 7.0759C12.6024 7.33896 13.1285 7.92263 13.2436 8.7858C13.3669 9.69829 13.0134 10.4381 12.2078 10.9149C10.8021 11.7534 9.37992 12.5755 7.97419 13.414C7.87554 13.4716 7.80978 13.5702 7.72757 13.6524C7.83444 13.6853 7.94131 13.7428 8.04818 13.7428C9.42102 13.7511 10.7939 13.7593 12.1667 13.7428C12.6435 13.7346 13.1367 13.6935 13.5971 13.5702C14.674 13.2743 15.7262 12.9125 16.7949 12.5919C17.058 12.518 17.1402 12.4111 17.1402 12.1316C17.132 8.64605 17.132 5.1605 17.132 1.67495C17.132 1.60097 17.1566 1.51876 17.1237 1.46122C17.0744 1.37901 16.9922 1.26392 16.9265 1.26392C16.203 1.24748 15.4796 1.24748 14.7151 1.24748ZM8.4181 1.27214C8.377 2.04488 8.91134 2.94093 9.6923 3.35196C10.613 3.8452 11.5337 3.79587 12.3887 3.20399C13.0545 2.74363 13.408 2.0942 13.4574 1.27214C11.7557 1.27214 10.0869 1.27214 8.4181 1.27214Z" fill="#FF0000"/>
</svg>
