<svg width="40" height="40" viewBox="0 0 40 40" fill="none" xmlns="http://www.w3.org/2000/svg">
<path d="M36 0H4C1.79086 0 0 1.79086 0 4V36C0 38.2091 1.79086 40 4 40H36C38.2091 40 40 38.2091 40 36V4C40 1.79086 38.2091 0 36 0Z" fill="#EC3737"/>
<path d="M17.338 13.59C16.3856 13.8525 15.4397 14.1379 14.501 14.446C14.4153 14.4738 14.3391 14.525 14.2811 14.594C14.2231 14.6629 14.1857 14.7468 14.173 14.836C13.619 18.993 14.899 22.026 16.426 24.024C17.0725 24.8784 17.8434 25.6311 18.713 26.257C19.059 26.501 19.365 26.677 19.606 26.79C19.726 26.847 19.824 26.885 19.899 26.908C19.9318 26.9195 19.9656 26.9279 20 26.933C20.034 26.9275 20.0674 26.9191 20.1 26.908C20.176 26.885 20.274 26.847 20.394 26.79C20.634 26.677 20.941 26.5 21.287 26.257C22.1566 25.6311 22.9275 24.8784 23.574 24.024C25.101 22.027 26.381 18.993 25.827 14.836C25.8145 14.7468 25.777 14.6628 25.719 14.5939C25.661 14.5249 25.5848 14.4737 25.499 14.446C24.848 14.233 23.749 13.886 22.662 13.591C21.552 13.29 20.531 13.067 20 13.067C19.47 13.067 18.448 13.29 17.338 13.591V13.59ZM17.072 12.56C18.157 12.265 19.31 12 20 12C20.69 12 21.843 12.265 22.928 12.56C24.038 12.86 25.157 13.215 25.815 13.43C26.0901 13.5209 26.334 13.6875 26.5187 13.9107C26.7034 14.1339 26.8213 14.4047 26.859 14.692C27.455 19.169 26.072 22.487 24.394 24.682C23.6824 25.621 22.834 26.4479 21.877 27.135C21.5461 27.3728 21.1955 27.5819 20.829 27.76C20.549 27.892 20.248 28 20 28C19.752 28 19.452 27.892 19.171 27.76C18.8045 27.5819 18.4539 27.3728 18.123 27.135C17.166 26.4478 16.3176 25.621 15.606 24.682C13.928 22.487 12.545 19.169 13.141 14.692C13.1787 14.4047 13.2966 14.1339 13.4813 13.9107C13.666 13.6875 13.9099 13.5209 14.185 13.43C15.1402 13.1168 16.1028 12.8267 17.072 12.56V12.56Z" fill="white"/>
<path d="M21.5 18.5C21.5002 18.8103 21.4041 19.1131 21.225 19.3665C21.0459 19.6199 20.7926 19.8116 20.5 19.915L20.885 21.905C20.899 21.9774 20.8968 22.052 20.8786 22.1234C20.8604 22.1949 20.8267 22.2614 20.7798 22.3182C20.7328 22.3751 20.6739 22.4209 20.6072 22.4523C20.5405 22.4837 20.4677 22.5 20.394 22.5H19.606C19.5324 22.4999 19.4597 22.4835 19.3931 22.452C19.3265 22.4205 19.2677 22.3747 19.2209 22.3179C19.1741 22.261 19.1404 22.1945 19.1223 22.1232C19.1042 22.0518 19.102 21.9773 19.116 21.905L19.5 19.915C19.2408 19.8234 19.0117 19.6622 18.8379 19.4492C18.664 19.2361 18.5521 18.9794 18.5143 18.7071C18.4764 18.4347 18.5142 18.1572 18.6235 17.9049C18.7327 17.6525 18.9092 17.4351 19.1337 17.2763C19.3581 17.1175 19.6219 17.0234 19.8962 17.0044C20.1705 16.9854 20.4448 17.0421 20.689 17.1684C20.9333 17.2947 21.1381 17.4857 21.2811 17.7206C21.4241 17.9554 21.4999 18.225 21.5 18.5V18.5Z" fill="white"/>
</svg>
