<svg width="166" height="166" viewBox="0 0 166 166" fill="none" xmlns="http://www.w3.org/2000/svg">
<path d="M141 97.9209C141 98.3719 141 98.823 141 99.274C140.91 99.9656 140.79 100.657 140.7 101.349C140.369 104.205 140.249 107.092 139.678 109.918C137.215 122.036 131.447 132.38 122.315 140.739C109.308 152.617 93.9582 157.518 76.5052 155.593C66.8025 154.541 57.9108 151.053 50.0405 145.22C34.3899 133.643 26.4595 117.977 26.0089 98.5824C25.9188 94.1021 26.5195 89.6218 27.601 85.2317C33.6689 60.0939 55.9582 42.0524 81.1313 41.2706C81.672 41.2406 82.2127 41.0902 82.7534 41C83.204 41 83.6546 41 84.1052 41C84.7361 41.0902 85.3368 41.2406 85.9677 41.3007C88.2807 41.5412 90.5938 41.6014 92.8767 42.0223C109.278 44.909 122.135 53.3885 131.387 67.2203C137.275 76.0306 140.399 85.8331 140.73 96.4475C140.73 96.8985 140.91 97.4097 141 97.9209ZM74.042 103.303C73.5313 102.822 73.261 102.582 73.0207 102.311C69.476 98.7628 65.9313 95.1846 62.3566 91.6665C60.8547 90.163 59.6831 90.163 58.2112 91.6665C55.6879 94.1923 53.1646 96.6881 50.6713 99.2139C49.1693 100.717 49.1693 101.89 50.6412 103.363C57.6705 110.43 64.6997 117.496 71.729 124.562C73.321 126.156 74.3724 126.156 75.9345 124.592C89.3621 111.151 102.79 97.7104 116.247 84.2695C117.749 82.766 117.749 81.6836 116.247 80.12C113.814 77.6543 111.381 75.2487 108.948 72.8131C107.085 70.9489 106.094 70.9489 104.232 72.8131C94.4388 82.6157 84.6459 92.4483 74.8531 102.251C74.5527 102.552 74.3424 102.882 74.042 103.303Z" fill="#FF0000"/>
<path d="M41.4612 6.41589C40.8991 6.97793 39.9912 7.5832 39.6453 8.36141C39.1265 9.52872 39.6886 10.6096 40.8559 11.1716C44.7469 13.0739 48.6812 14.9329 52.6155 16.792C53.7828 17.354 54.8636 17.0514 55.6418 16.0138C56.593 14.76 56.1174 13.1171 54.4745 12.2957C50.7564 10.4799 46.9951 8.75052 43.277 6.97793C42.8014 6.805 42.3258 6.6753 41.4612 6.41589ZM88.8886 28.811C89.71 28.3786 90.4018 28.1192 90.8773 27.7301C91.742 26.9952 92.5202 26.1737 93.2984 25.3955C95.5466 23.2338 97.7947 21.0721 99.9997 18.8672C101.124 17.7431 101.167 16.4029 100.216 15.4085C99.2647 14.4574 98.0541 14.198 97.0598 15.1059C93.7308 18.2187 90.445 21.418 87.2889 24.7038C86.8134 25.1793 86.8134 26.4764 87.0728 27.2113C87.2889 27.8166 88.2401 28.2057 88.8886 28.811ZM143.579 51.8978C144.271 51.2925 145.352 50.8602 145.525 50.1684C145.741 49.347 145.525 48.05 145.006 47.4015C142.196 44.2886 139.213 41.3055 136.273 38.3224C135.149 37.1983 133.679 37.1551 132.684 38.1062C131.69 39.1006 131.69 40.5273 132.814 41.6946C135.711 44.721 138.651 47.7473 141.634 50.7305C142.066 51.206 142.758 51.4222 143.579 51.8978ZM153.782 116.23C153.35 115.451 153.177 114.716 152.745 114.371C149.373 111.474 145.914 108.62 142.455 105.81C141.374 104.946 139.948 105.162 139.169 106.243C138.305 107.367 138.348 108.534 139.386 109.442C142.801 112.382 146.26 115.278 149.805 118.045C150.324 118.435 151.491 118.435 152.183 118.132C152.831 117.786 153.22 116.921 153.782 116.23ZM32.8144 43.251C32.8576 41.6514 32.2524 40.7003 30.9121 40.4409C29.4854 40.1814 28.4478 40.8299 28.1019 42.2567C27.0643 46.4936 26.0699 50.7305 25.1188 54.9674C24.8162 56.3076 25.5944 57.5182 26.8482 57.864C28.0587 58.2099 29.3125 57.5182 29.788 56.2212C30.0475 55.5294 30.1772 54.7512 30.3501 54.0162C31.1283 50.3414 31.993 46.6665 32.8144 43.251ZM10.9381 142.818C10.0735 143.38 9.29526 143.683 8.81968 144.245C6.13919 147.401 3.50193 150.6 0.864675 153.8C-0.259402 155.183 -0.172937 156.567 0.994374 157.518C2.07522 158.382 3.50193 158.166 4.53954 156.913C5.79332 155.486 6.96063 154.016 8.17118 152.546C9.64113 150.773 11.2408 149.044 12.5378 147.142C13.0134 146.493 13.0998 145.283 12.8404 144.504C12.6675 143.856 11.6731 143.424 10.9381 142.818ZM20.1037 81.9885C19.7146 81.167 19.5849 80.5618 19.1958 80.1727C16.083 77.0166 12.9701 73.8605 9.81406 70.7909C8.81969 69.8398 7.39297 69.9263 6.48506 70.8774C5.57715 71.8285 5.53392 73.1688 6.48506 74.2064C7.13357 74.9414 7.82531 75.5899 8.51705 76.2816C10.8949 78.6595 13.1863 81.0806 15.6506 83.3287C16.2559 83.8908 17.5529 84.0637 18.4176 83.8908C19.1093 83.6746 19.5849 82.637 20.1037 81.9885ZM67.8337 28.7677C66.4935 28.7677 65.4991 29.7621 65.4559 31.1024C65.4127 32.4858 66.4935 33.6099 67.877 33.5667C69.174 33.5234 70.1684 32.4426 70.1684 31.1024C70.1251 29.8053 69.1308 28.7677 67.8337 28.7677ZM23.2598 23.9256C24.5568 23.8823 25.5511 22.8879 25.5511 21.5045C25.5511 20.1642 24.5568 19.1266 23.2598 19.0834C21.8763 19.0834 20.8387 20.1642 20.8819 21.5909C20.9251 23.0177 21.9195 23.9688 23.2598 23.9256ZM80.2418 53.9298C80.2851 52.5895 79.2907 51.5087 77.9937 51.4655C76.6534 51.4222 75.6591 52.3734 75.5726 53.7568C75.4861 55.1836 76.5237 56.3076 77.864 56.3076C79.2042 56.3076 80.1986 55.27 80.2418 53.9298ZM23.13 165.992C24.4271 166.035 25.4647 165.04 25.5511 163.7C25.5944 162.274 24.5568 161.149 23.2165 161.193C21.8763 161.193 20.9251 162.23 20.8819 163.571C20.8819 164.911 21.833 165.948 23.13 165.992ZM30.8689 105.637C30.8689 104.211 29.961 103.259 28.5775 103.259C27.2373 103.259 26.2429 104.211 26.2429 105.594C26.1996 107.021 27.2373 108.102 28.6207 108.102C29.9178 108.015 30.8689 107.021 30.8689 105.637ZM136.1 9.39902C134.803 9.35579 133.765 10.3934 133.679 11.7336C133.636 13.0739 134.587 14.1547 135.884 14.2412C137.31 14.3277 138.348 13.2901 138.348 11.8633C138.391 10.4799 137.44 9.44225 136.1 9.39902ZM144.747 149.476C146.087 149.52 147.081 148.525 147.124 147.142C147.168 145.758 146.26 144.721 144.92 144.634C143.536 144.548 142.455 145.629 142.455 147.055C142.455 148.439 143.45 149.476 144.747 149.476ZM2.33462 46.9259C3.7181 46.9259 4.62601 46.018 4.66924 44.5913C4.71248 43.2078 3.80457 42.1702 2.46432 42.0837C1.12408 41.9973 0 43.0781 0 44.5048C0.0432337 45.8883 0.994377 46.8827 2.33462 46.9259ZM157.976 98.1579C157.933 96.7744 156.938 95.78 155.641 95.8233C154.258 95.8233 153.307 96.9473 153.393 98.4173C153.48 99.844 154.431 100.709 155.814 100.665C157.068 100.579 157.976 99.5414 157.976 98.1579ZM120.925 23.8823C120.882 22.4988 119.93 21.5477 118.59 21.5477C117.25 21.5477 116.299 22.5421 116.256 23.9256C116.256 25.3523 117.293 26.3899 118.677 26.3467C120.017 26.3034 120.925 25.2658 120.925 23.8823ZM157.976 132.615C157.976 131.232 157.025 130.194 155.728 130.151C154.431 130.108 153.393 131.102 153.35 132.485C153.307 133.999 154.215 134.993 155.685 134.993C157.025 134.95 157.933 133.999 157.976 132.615ZM159.187 23.9256C159.143 22.5853 158.149 21.5909 156.809 21.5909C155.469 21.5909 154.474 22.5853 154.474 23.9688C154.474 25.3955 155.555 26.4331 156.938 26.3899C158.236 26.3034 159.23 25.2658 159.187 23.9256ZM46.6492 77.276C46.6492 75.8493 45.7413 74.8981 44.4011 74.8549C43.0176 74.8549 42.0232 75.8925 42.0664 77.3625C42.1097 78.7892 43.0176 79.6971 44.4011 79.6538C45.7845 79.6538 46.6924 78.7459 46.6492 77.276Z" fill="#FF0000" fill-opacity="0.13"/>
<path d="M165.715 5.81064C164.677 7.15088 163.38 7.41029 161.737 7.10765C158.106 6.41591 154.431 5.85387 150.799 5.29183C149.459 5.07566 148.378 4.68656 148.032 3.25984C147.686 1.87636 148.594 1.09815 149.545 0.319946C150.194 0.319946 150.842 0.319946 151.491 0.319946C154.56 0.881985 157.63 1.40079 160.656 1.96283C162.472 2.3087 164.461 2.179 165.715 3.86512C165.715 4.51362 165.715 5.16213 165.715 5.81064Z" fill="#FF0000" fill-opacity="0.13"/>
<path d="M14.9158 0.319963C17.2504 2.22225 17.0775 3.9516 14.3537 5.33508C11.0247 7.06443 7.65251 8.79378 4.32351 10.4799C2.42123 11.4743 0.994512 11.2149 0.302772 9.74492C-0.388968 8.36144 0.216305 7.1509 2.03212 6.19975C5.79346 4.211 9.5548 2.26549 13.2729 0.276733C13.8349 0.319967 14.397 0.319963 14.9158 0.319963Z" fill="#FF0000" fill-opacity="0.13"/>
<path d="M165.715 154.362C162.862 157.777 160.052 161.236 157.198 164.651C155.944 166.121 154.604 166.381 153.437 165.473C152.183 164.478 152.226 163.095 153.523 161.539C155.944 158.599 158.409 155.659 160.83 152.719C162.646 150.514 164.029 150.557 165.715 152.762C165.715 153.281 165.715 153.8 165.715 154.362Z" fill="#FF0000" fill-opacity="0.13"/>
<path d="M80.6311 0.319946C81.0634 0.881985 81.7119 1.40079 81.9281 2.00607C82.3604 3.17338 82.0146 4.25422 80.8905 4.85949C79.8096 5.42153 78.772 5.29183 77.9938 4.34069C77.1724 3.30308 77.2156 2.179 78.0371 1.14139C78.2965 0.838755 78.6856 0.579349 78.9882 0.319946C79.5502 0.319946 80.069 0.319946 80.6311 0.319946Z" fill="#FF0000" fill-opacity="0.13"/>
<path d="M41.4612 6.41589C42.3259 6.71853 42.8447 6.80499 43.2338 7.02116C46.9951 8.79375 50.7132 10.5231 54.4313 12.3389C56.0742 13.1604 56.593 14.8032 55.5986 16.057C54.8204 17.0514 53.7396 17.354 52.5723 16.8352C48.638 14.9762 44.7037 13.1171 40.8127 11.2148C39.6454 10.6528 39.0833 9.57196 39.6021 8.40465C39.9912 7.53997 40.8991 6.97793 41.4612 6.41589Z" fill="#FF0000" fill-opacity="0.13"/>
<path d="M88.8886 28.811C88.1968 28.249 87.2889 27.8166 87.0295 27.1681C86.7701 26.4331 86.7701 25.1361 87.2457 24.6605C90.4018 21.3748 93.6875 18.2187 97.0165 15.0627C98.0109 14.1115 99.2214 14.3709 100.173 15.3653C101.124 16.3597 101.081 17.6999 99.9564 18.824C97.7515 21.0289 95.5033 23.1906 93.2552 25.3523C92.4338 26.1305 91.6988 26.9952 90.8341 27.6869C90.4018 28.1192 89.7533 28.3354 88.8886 28.811Z" fill="#FF0000" fill-opacity="0.13"/>
<path d="M143.58 51.8978C142.758 51.4223 142.023 51.2061 141.591 50.7305C138.608 47.7474 135.668 44.721 132.771 41.6947C131.647 40.5274 131.647 39.0574 132.641 38.1063C133.636 37.1551 135.106 37.1984 136.23 38.3224C139.17 41.3056 142.153 44.2887 144.963 47.4015C145.525 48.0068 145.698 49.3038 145.482 50.1685C145.352 50.8602 144.315 51.2926 143.58 51.8978Z" fill="#FF0000" fill-opacity="0.13"/>
<path d="M153.782 116.23C153.22 116.921 152.831 117.786 152.182 118.089C151.534 118.391 150.323 118.435 149.805 118.002C146.259 115.235 142.801 112.339 139.385 109.399C138.348 108.534 138.348 107.323 139.169 106.199C139.99 105.162 141.374 104.902 142.455 105.767C145.914 108.577 149.329 111.431 152.744 114.327C153.177 114.716 153.35 115.451 153.782 116.23Z" fill="#FF0000" fill-opacity="0.13"/>
<path d="M32.8142 43.2511C31.9927 46.6666 31.1713 50.3414 30.3066 54.0163C30.1337 54.7513 30.004 55.4863 29.7446 56.2212C29.3122 57.5182 28.0585 58.21 26.8047 57.8641C25.5509 57.5182 24.7727 56.3077 25.0753 54.9674C26.0265 50.7305 27.0209 46.4936 28.0585 42.2567C28.4043 40.83 29.4419 40.1815 30.8687 40.4409C32.2521 40.7003 32.8142 41.6515 32.8142 43.2511Z" fill="#FF0000" fill-opacity="0.13"/>
<path d="M10.9381 142.818C11.7163 143.424 12.6675 143.856 12.8836 144.504C13.143 145.283 13.0133 146.493 12.581 147.142C11.2408 149.044 9.68435 150.773 8.2144 152.546C7.00386 154.016 5.83655 155.486 4.58277 156.913C3.50193 158.166 2.07521 158.383 1.0376 157.518C-0.129707 156.61 -0.216175 155.183 0.907902 153.8C3.54516 150.6 6.18242 147.401 8.86291 144.245C9.29525 143.683 10.0735 143.38 10.9381 142.818Z" fill="#FF0000" fill-opacity="0.13"/>
<path d="M20.1035 81.9885C19.5414 82.637 19.0659 83.6746 18.4173 83.8475C17.5959 84.0637 16.2989 83.8475 15.6504 83.2855C13.1861 81.0373 10.8947 78.6162 8.51682 76.2384C7.82508 75.5466 7.13334 74.8981 6.48484 74.1632C5.53369 73.0823 5.57693 71.7421 6.48484 70.8342C7.39274 69.9263 8.81946 69.7965 9.81384 70.7477C12.9699 73.8173 16.0827 76.9734 19.1956 80.1294C19.5847 80.5618 19.7144 81.167 20.1035 81.9885Z" fill="#FF0000" fill-opacity="0.13"/>
<path d="M67.8337 28.7678C69.1739 28.7678 70.1683 29.7621 70.1683 31.1456C70.1683 32.4859 69.1739 33.5667 67.8769 33.6099C66.5366 33.6532 65.4126 32.5291 65.4558 31.1456C65.499 29.7621 66.4934 28.7678 67.8337 28.7678Z" fill="#FF0000" fill-opacity="0.13"/>
<path d="M23.26 23.9256C21.9198 23.9688 20.9254 22.9744 20.8822 21.5909C20.8389 20.1642 21.8765 19.0834 23.26 19.0834C24.557 19.0834 25.5514 20.1642 25.5514 21.5045C25.5514 22.8879 24.6003 23.9256 23.26 23.9256Z" fill="#FF0000" fill-opacity="0.13"/>
<path d="M80.2419 53.9298C80.1986 55.27 79.2042 56.3076 77.864 56.3076C76.4805 56.3076 75.4861 55.1836 75.5726 53.7568C75.6591 52.3734 76.6534 51.4222 77.9937 51.4655C79.2907 51.5087 80.2851 52.5895 80.2419 53.9298Z" fill="#FF0000" fill-opacity="0.13"/>
<path d="M23.1304 165.992C21.8334 165.948 20.839 164.911 20.8822 163.527C20.8822 162.144 21.8766 161.15 23.2168 161.15C24.6003 161.15 25.6379 162.274 25.5515 163.657C25.5082 165.041 24.4706 166.035 23.1304 165.992Z" fill="#FF0000" fill-opacity="0.13"/>
<path d="M30.8688 105.637C30.8688 107.021 29.9609 108.058 28.6206 108.058C27.2371 108.102 26.1995 107.021 26.2428 105.551C26.286 104.167 27.2371 103.216 28.5774 103.216C29.9176 103.259 30.8688 104.211 30.8688 105.637Z" fill="#FF0000" fill-opacity="0.13"/>
<path d="M136.1 9.39901C137.397 9.44224 138.391 10.4799 138.348 11.8633C138.348 13.3333 137.31 14.3277 135.884 14.2412C134.587 14.1547 133.635 13.0739 133.679 11.7336C133.765 10.3934 134.803 9.35577 136.1 9.39901Z" fill="#FF0000" fill-opacity="0.13"/>
<path d="M144.746 149.476C143.449 149.433 142.455 148.396 142.455 147.055C142.455 145.629 143.536 144.591 144.919 144.634C146.26 144.677 147.168 145.758 147.124 147.142C147.081 148.525 146.087 149.52 144.746 149.476Z" fill="#FF0000" fill-opacity="0.13"/>
<path d="M2.3346 46.926C0.994357 46.926 0.0432129 45.8884 0.0432129 44.5481C0.0432129 43.1214 1.12406 42.0406 2.50753 42.127C3.80455 42.2135 4.71246 43.2511 4.71246 44.6346C4.62599 46.0181 3.71808 46.926 2.3346 46.926Z" fill="#FF0000" fill-opacity="0.13"/>
<path d="M157.976 98.1579C158.019 99.5414 157.112 100.579 155.771 100.622C154.388 100.665 153.437 99.8008 153.35 98.3741C153.264 96.9041 154.215 95.8233 155.598 95.78C156.939 95.78 157.933 96.8176 157.976 98.1579Z" fill="#FF0000" fill-opacity="0.13"/>
<path d="M120.924 23.8823C120.968 25.2658 120.016 26.3034 118.676 26.3467C117.293 26.3899 116.212 25.3523 116.255 23.9256C116.255 22.5421 117.206 21.591 118.59 21.5477C119.93 21.5477 120.881 22.4989 120.924 23.8823Z" fill="#FF0000" fill-opacity="0.13"/>
<path d="M157.976 132.615C157.976 133.999 157.025 134.95 155.685 134.993C154.258 134.993 153.307 133.999 153.35 132.486C153.393 131.102 154.388 130.108 155.728 130.151C157.025 130.194 157.976 131.232 157.976 132.615Z" fill="#FF0000" fill-opacity="0.13"/>
<path d="M159.187 23.9256C159.23 25.2658 158.235 26.3466 156.938 26.3899C155.555 26.4331 154.474 25.3955 154.474 23.9688C154.474 22.6286 155.468 21.6342 156.809 21.5909C158.149 21.5909 159.143 22.5421 159.187 23.9256Z" fill="#FF0000" fill-opacity="0.13"/>
<path d="M46.6491 77.276C46.6491 78.7027 45.7844 79.6539 44.4009 79.6539C43.0174 79.6971 42.1095 78.7892 42.0663 77.3625C42.0231 75.8925 43.0174 74.8549 44.4009 74.8549C45.7412 74.8982 46.6491 75.8925 46.6491 77.276Z" fill="#FF0000" fill-opacity="0.13"/>
</svg>
