<svg width="44" height="26" viewBox="0 0 44 26" fill="none" xmlns="http://www.w3.org/2000/svg">
<path d="M11.9168 21.9999H8.25016C7.74416 21.9999 7.3335 21.5892 7.3335 21.0832C7.3335 20.5772 7.74416 20.1666 8.25016 20.1666H11.9168C12.4228 20.1666 12.8335 20.5772 12.8335 21.0832C12.8335 21.5892 12.4228 21.9999 11.9168 21.9999Z" fill="#868889"/>
<path d="M41.7084 21.9999H39.4167C38.9107 21.9999 38.5 21.5892 38.5 21.0832C38.5 20.5772 38.9107 20.1665 39.4167 20.1665H40.9475L42.1832 13.5812C42.1667 10.2115 39.2884 7.33321 35.75 7.33321H29.7312L26.8144 20.1665H32.0834C32.5894 20.1665 33 20.5772 33 21.0832C33 21.5892 32.5894 21.9999 32.0834 21.9999H25.6667C25.388 21.9999 25.124 21.8734 24.9499 21.6552C24.7757 21.4389 24.7097 21.1529 24.772 20.8815L28.105 6.21488C28.2004 5.79505 28.5707 5.49988 28.9997 5.49988H35.75C40.2985 5.49988 44 9.20138 44 13.7499L42.6085 21.2519C42.5279 21.6864 42.1502 21.9999 41.7084 21.9999Z" fill="#868889"/>
<path d="M35.7498 25.6665C33.2235 25.6665 31.1665 23.6114 31.1665 21.0832C31.1665 18.555 33.2235 16.4999 35.7498 16.4999C38.2762 16.4999 40.3332 18.555 40.3332 21.0832C40.3332 23.6114 38.2762 25.6665 35.7498 25.6665ZM35.7498 18.3332C34.2337 18.3332 32.9998 19.567 32.9998 21.0832C32.9998 22.5994 34.2337 23.8332 35.7498 23.8332C37.266 23.8332 38.4998 22.5994 38.4998 21.0832C38.4998 19.567 37.266 18.3332 35.7498 18.3332Z" fill="#868889"/>
<path d="M15.5833 25.6665C13.057 25.6665 11 23.6114 11 21.0832C11 18.555 13.057 16.4999 15.5833 16.4999C18.1097 16.4999 20.1667 18.555 20.1667 21.0832C20.1667 23.6114 18.1097 25.6665 15.5833 25.6665ZM15.5833 18.3332C14.0672 18.3332 12.8333 19.567 12.8333 21.0832C12.8333 22.5994 14.0672 23.8332 15.5833 23.8332C17.0995 23.8332 18.3333 22.5994 18.3333 21.0832C18.3333 19.567 17.0995 18.3332 15.5833 18.3332Z" fill="#868889"/>
<path d="M11.9165 5.4999H4.58317C4.07717 5.4999 3.6665 5.08923 3.6665 4.58323C3.6665 4.07723 4.07717 3.66656 4.58317 3.66656H11.9165C12.4225 3.66656 12.8332 4.07723 12.8332 4.58323C12.8332 5.08923 12.4225 5.4999 11.9165 5.4999Z" fill="#868889"/>
<path d="M11.9168 10.9999H2.75016C2.24416 10.9999 1.8335 10.5892 1.8335 10.0832C1.8335 9.57723 2.24416 9.16656 2.75016 9.16656H11.9168C12.4228 9.16656 12.8335 9.57723 12.8335 10.0832C12.8335 10.5892 12.4228 10.9999 11.9168 10.9999Z" fill="#868889"/>
<path d="M11.9167 16.4999H0.916667C0.410667 16.4999 0 16.0892 0 15.5832C0 15.0772 0.410667 14.6666 0.916667 14.6666H11.9167C12.4227 14.6666 12.8333 15.0772 12.8333 15.5832C12.8333 16.0892 12.4227 16.4999 11.9167 16.4999Z" fill="#868889"/>
<path d="M25.6668 21.9999H19.2502C18.7442 21.9999 18.3335 21.5892 18.3335 21.0832C18.3335 20.5772 18.7442 20.1666 19.2502 20.1666H24.9353L29.1007 1.83321H8.25016C7.74416 1.83321 7.3335 1.42255 7.3335 0.916545C7.3335 0.410545 7.74416 -0.00012207 8.25016 -0.00012207H30.2502C30.5288 -0.00012207 30.7928 0.126378 30.967 0.344545C31.1412 0.560879 31.2072 0.846878 31.1448 1.11821L26.5615 21.2849C26.4662 21.7047 26.094 21.9999 25.6668 21.9999Z" fill="#868889"/>
</svg>
